<svg width="96" height="90" viewBox="0 0 96 90" fill="none" xmlns="http://www.w3.org/2000/svg">
<path d="M38.4249 41.3049C38.3249 41.1749 38.2749 41.0948 38.2099 41.0299C35.1899 37.9198 32.1699 34.8148 29.1549 31.7049C27.3099 29.7999 25.4599 27.8998 23.6449 25.9648C20.1699 22.2698 16.4049 18.8748 12.7949 15.3198C11.4599 14.0098 10.1749 12.6498 8.84986 11.3298C8.11486 10.5948 7.35486 9.87485 6.58986 9.17485C5.61486 8.28485 5.47486 7.64985 6.02986 6.47485C6.29986 5.90985 6.45986 5.32485 6.39486 4.68985C6.34486 4.16485 6.51486 3.71485 6.86486 3.31985C7.04986 3.10985 7.21486 2.87485 7.37986 2.63985C8.69486 0.734849 11.0149 0.45985 12.8349 1.15485C13.3349 1.34485 13.8099 1.65485 14.2249 1.99985C17.1599 4.43485 20.0899 6.86485 22.7849 9.57485C24.6349 11.4398 26.6099 13.1798 28.5399 14.9648C30.5199 16.7999 32.5649 18.5698 34.4749 20.4698C38.4349 24.4098 42.4599 28.2899 46.0549 32.5849C46.3099 32.8899 46.5949 33.1698 46.8999 33.4949C48.0449 32.5798 49.1549 31.7048 50.2499 30.8048C52.0649 29.3198 53.8749 27.8298 55.6749 26.3298C56.4399 25.6948 57.1749 25.0248 57.9099 24.3548C59.4299 22.9648 60.8999 21.5198 62.4499 20.1698C66.3199 16.7898 70.2899 13.5299 74.3899 10.4248C76.5799 8.76985 78.7249 7.05485 80.9249 5.41485C82.3099 4.37985 83.7599 3.43985 85.1649 2.43485C85.9499 1.86985 86.7299 1.28985 87.4749 0.67485C88.0899 0.16485 88.7399 -0.0501504 89.5149 0.18485C90.1949 0.38985 90.8749 0.60485 91.5449 0.82985C91.9849 0.97485 92.3099 1.26985 92.5999 1.63985C92.8099 1.91485 93.0849 2.14485 93.3499 2.36985C93.7149 2.66985 94.1199 2.92485 94.4699 3.23985C95.3049 3.97985 95.5449 4.90485 95.1599 5.94485C94.7999 6.92485 94.3099 7.81985 93.6149 8.63485C91.7099 10.8698 89.3549 12.5998 87.1549 14.5048C83.4499 17.7098 79.5849 20.7348 76.0249 24.1098C75.1649 24.9249 74.2549 25.6849 73.3199 26.4149C70.4199 28.6749 67.7149 31.1499 65.0249 33.6499C61.9249 36.5349 58.7449 39.3399 55.5949 42.1749C55.4749 42.2849 55.3299 42.3648 55.2449 42.4198C55.2849 42.5849 55.2799 42.6399 55.3099 42.6698C56.9999 44.6798 58.6999 46.6849 60.3849 48.6999C61.5399 50.0799 62.6399 51.5099 63.8199 52.8649C64.9399 54.1449 66.1649 55.3399 67.2999 56.6099C71.0699 60.8349 74.7149 65.1598 78.1399 69.6698C80.3849 72.6298 82.6449 75.5798 84.8799 78.5499C85.3649 79.1898 85.7499 79.9048 86.2149 80.5598C86.6798 81.2148 87.1599 81.8598 87.6899 82.4648C88.2249 83.0748 88.3999 83.7348 88.1699 84.4998C88.0299 84.9748 87.8499 85.4448 87.7199 85.9198C87.5449 86.5648 87.2399 87.0899 86.6399 87.4398C86.4499 87.5499 86.3199 87.7798 86.1749 87.9598C85.8499 88.3699 85.5648 88.8098 85.2149 89.1848C84.5948 89.8498 83.8099 90.0598 82.9449 89.7798C82.0199 89.4798 81.1649 89.0499 80.3999 88.4148C78.2149 86.5948 76.5449 84.3148 74.7049 82.1848C71.6999 78.7098 68.8649 75.0898 65.7049 71.7498C64.9249 70.9249 64.1949 70.0498 63.4949 69.1548C61.4349 66.5248 59.1849 64.0599 56.9199 61.6049C53.5999 57.9999 50.3699 54.3148 47.0999 50.6599C46.9599 50.5049 46.8149 50.3498 46.6199 50.1399C46.4099 50.3249 46.2149 50.4849 46.0349 50.6599C44.1749 52.4849 42.3199 54.3099 40.4549 56.1299C38.1349 58.3949 35.8149 60.6648 33.4849 62.9198C30.9149 65.4048 28.2899 67.8348 25.7649 70.3648C22.4849 73.6498 19.2949 77.0198 16.0449 80.3348C14.6699 81.7398 13.2449 83.0899 11.8549 84.4799C11.1349 85.1999 10.4399 85.9398 9.73486 86.6749C9.55486 86.8649 9.39486 87.0748 9.20986 87.2498C8.55486 87.8648 7.80486 88.0349 6.98986 87.6348C6.20986 87.2549 5.41986 87.0298 4.52986 87.0898C4.20986 87.1098 3.83986 86.9349 3.54486 86.7598C3.11986 86.5049 2.73486 86.1848 2.35486 85.8648C1.27986 84.9648 0.729858 83.8399 0.679858 82.4099C0.629858 81.0248 1.03986 79.8448 1.90486 78.8048C4.49486 75.6948 7.07486 72.5798 9.95486 69.7198C11.9549 67.7348 13.8149 65.6199 15.7349 63.5549C17.7799 61.3499 19.7899 59.1098 21.8699 56.9398C23.4249 55.3148 25.0849 53.7948 26.6599 52.1898C28.6649 50.1399 30.7499 48.1799 32.9249 46.3049C34.6999 44.7749 36.4099 43.1698 38.1499 41.5998C38.2349 41.5198 38.3099 41.4299 38.4299 41.3049H38.4249Z" fill="black"/>
</svg>
