<svg width="94" height="92" viewBox="0 0 94 92" fill="none" xmlns="http://www.w3.org/2000/svg">
<path d="M45.8049 63.0451C45.7049 63.2701 45.6599 63.3751 45.6149 63.4751C45.3049 64.1501 45.0349 64.8401 44.6849 65.4901C43.6299 67.4301 42.5599 69.3601 41.4749 71.2851C39.7249 74.3851 38.1099 77.5601 36.1049 80.5101C34.6249 82.6901 33.1899 84.9101 31.4699 86.9251C30.0449 88.5901 28.3349 89.8801 26.3549 90.7751C24.6049 91.5701 22.7199 91.8601 20.8049 91.7801C19.8299 91.7401 18.8349 91.6951 17.8899 91.4851C13.4549 90.4801 10.3199 87.9151 10.0199 82.4851C9.89993 80.2551 10.4399 78.1301 11.1349 76.0501C12.1449 73.0101 13.5399 70.1601 15.5049 67.6001C17.5799 64.8951 19.7099 62.2401 22.1499 59.8651C24.4149 57.6551 26.6949 55.4501 29.2149 53.5201C29.3499 53.4151 29.4799 53.3001 29.6349 53.1701C29.5599 53.1201 29.5199 53.0651 29.4749 53.0651C25.7599 52.9951 22.1349 52.2601 18.5199 51.4901C16.3599 51.0301 14.2499 50.3501 12.3749 49.1101C12.0349 48.8851 11.6749 48.6801 11.2999 48.5101C9.50993 47.7151 8.08493 46.4351 6.74493 45.0601C5.34993 43.6301 4.08493 42.0901 3.01493 40.3951C2.12993 38.9951 1.38993 37.5251 1.02493 35.9151C0.669929 34.3501 0.609929 32.7401 0.719929 31.1301C0.774929 30.3101 1.10493 29.5951 1.58493 28.9251C3.65493 26.0301 6.57493 24.5701 9.98493 23.9551C11.5699 23.6701 13.1699 23.5901 14.7749 23.8151C15.2749 23.8851 15.7849 23.9601 16.2649 24.1101C18.2249 24.7251 20.1049 25.5101 21.8999 26.5451C23.2599 27.3301 24.5949 28.1201 25.8499 29.0601C27.3799 30.2101 28.8899 31.3951 30.4799 32.4651C32.3449 33.7201 34.2599 34.9001 36.1899 36.0501C37.0749 36.5751 38.0499 36.9501 39.0749 37.4351C39.0549 37.1501 39.0549 36.9301 39.0249 36.7151C38.6499 34.2401 38.2149 31.7801 37.5449 29.3601C36.9349 27.1551 36.4249 24.9251 35.8899 22.7051C35.6649 21.7751 35.4549 20.8401 35.2849 19.9001C35.1249 19.0151 35.0049 18.1251 34.8999 17.2301C34.7749 16.1451 34.6449 15.0551 34.5899 13.9651C34.4899 11.9051 35.0949 10.0351 36.2399 8.32513C37.5199 6.41513 39.1249 4.85513 41.0399 3.56513C42.4799 2.60013 43.9899 1.80013 45.5799 1.13513C46.9999 0.540126 48.4649 0.155126 50.0249 0.215126C50.3199 0.225126 50.6099 0.225126 50.9049 0.215126C51.8849 0.185126 52.7999 0.430126 53.6699 0.870126C54.0349 1.05513 54.3999 1.26013 54.7899 1.37013C56.0999 1.74513 57.1299 2.51513 58.0049 3.52513C58.5049 4.10013 59.0049 4.68013 59.4999 5.25513C60.1299 5.99013 60.3999 6.89513 60.6799 7.79013C61.3199 9.84513 61.3849 11.9401 61.0999 14.0601C61.0449 14.4651 60.9949 14.8751 60.9849 15.2851C60.9299 17.0351 60.4449 18.7201 60.1649 20.4351C59.4999 24.4901 58.8499 28.5401 58.5699 32.6451C58.5249 33.2701 58.4649 33.8901 58.4249 34.5151C58.4099 34.7051 58.4249 34.9001 58.4249 35.1401C58.5449 35.1001 58.6249 35.0951 58.6799 35.0551C61.2749 33.1351 64.0999 31.5601 66.7849 29.7701C68.7449 28.4651 70.8649 27.4901 73.0099 26.5201C75.2049 25.5251 77.5049 24.9401 79.8099 24.3551C81.1599 24.0101 82.5549 23.9401 83.9399 24.2251C84.4949 24.3401 85.0599 24.4151 85.6049 24.5651C86.0899 24.7001 86.5499 24.9151 87.0199 25.1051C87.2749 25.2051 87.5149 25.3351 87.7649 25.4401C88.3149 25.6701 88.8149 25.9651 89.2149 26.4151C90.0149 27.3251 90.7999 28.2451 91.6049 29.1501C92.1899 29.8101 92.5849 30.5651 92.7749 31.4201C92.9749 32.3151 93.1899 33.2101 93.3099 34.1201C93.5099 35.6501 93.0099 37.0651 92.4249 38.4351C91.9849 39.4551 91.4299 40.4251 90.9199 41.4151C90.8599 41.5351 90.7849 41.6551 90.6999 41.7601C89.1449 43.6901 87.4999 45.5151 85.1899 46.5801C83.7349 47.2501 82.2849 47.9301 80.8199 48.5851C78.6799 49.5451 76.5349 50.4951 74.3849 51.4301C72.6999 52.1601 70.9999 52.8651 69.3099 53.5801C69.1149 53.6601 68.9249 53.7501 68.6749 53.8551C68.8299 53.9851 68.9299 54.0601 69.0249 54.1501C69.3299 54.4251 69.6549 54.6801 69.9249 54.9801C70.7849 55.9401 71.6099 56.9301 72.4699 57.8951C73.3549 58.8901 74.2699 59.8501 75.1499 60.8501C75.9749 61.7901 76.7649 62.7601 77.5799 63.7101C78.1249 64.3501 78.6949 64.9701 79.2399 65.6101C80.4899 67.0701 81.6149 68.6101 82.4799 70.3351C82.6199 70.6101 82.8199 70.8551 82.9899 71.1201C83.1699 71.3951 83.4149 71.6551 83.5199 71.9601C84.0849 73.5701 84.5949 75.1801 84.3199 76.9351C84.1249 78.1801 83.8449 79.3901 83.3749 80.5551C83.2499 80.8651 83.1599 81.1851 83.0499 81.5001C82.7399 82.4051 82.2349 83.1851 81.5299 83.8351C81.2999 84.0451 81.0649 84.2501 80.8399 84.4701C79.5799 85.7051 78.0499 86.4651 76.3749 86.9501C75.8699 87.0951 75.3549 87.2201 74.8399 87.3301C73.9699 87.5151 73.0949 87.5601 72.2149 87.4151C71.6349 87.3201 71.0599 87.2251 70.4799 87.1301C68.2899 86.7851 66.4349 85.7301 64.7199 84.3901C63.8299 83.6901 62.9449 82.9801 62.0299 82.3101C60.8099 81.4151 59.7299 80.3801 58.6549 79.3201C56.1799 76.8801 54.1599 74.0601 51.9499 71.4051C50.7649 69.9751 49.5949 68.5351 48.4699 67.0551C47.7849 66.1551 47.2049 65.1751 46.5799 64.2301C46.3449 63.8751 46.1099 63.5151 45.8149 63.0601L45.8049 63.0451ZM41.5749 37.3501C41.4699 38.2401 41.3899 39.1351 41.2449 40.0151C41.1249 40.7401 40.4049 41.1801 39.6949 40.9901C39.3849 40.9051 39.0999 40.7101 38.8199 40.5401C38.3499 40.2601 37.9149 39.9251 37.4299 39.6801C35.9099 38.9151 34.3899 38.1701 32.9399 37.2701C30.5849 35.8001 28.2349 34.3251 26.0249 32.6401C25.4799 32.2251 24.9399 31.8051 24.4049 31.3801C23.1899 30.4151 21.8599 29.6501 20.5149 28.8801C18.9249 27.9651 17.2599 27.2751 15.5249 26.7201C15.1949 26.6151 14.8399 26.5601 14.4949 26.5101C13.0649 26.3001 11.6399 26.3901 10.2349 26.6601C7.74993 27.1451 5.56993 28.1701 3.97493 30.2451C3.52493 30.8301 3.33493 31.4401 3.37493 32.1451C3.42493 33.0051 3.47993 33.8601 3.54993 34.7201C3.56993 34.9701 3.62493 35.2251 3.69493 35.4651C4.05993 36.6701 4.58493 37.8001 5.25493 38.8651C6.24493 40.4451 7.42993 41.8801 8.72993 43.2101C9.86493 44.3751 11.0699 45.4601 12.5899 46.1251C13.0199 46.3101 13.4249 46.5551 13.8199 46.8101C15.5549 47.9501 17.5249 48.4751 19.5049 48.9251C21.1399 49.2951 22.8099 49.5251 24.4649 49.8201C26.1399 50.1251 27.8249 50.3451 29.5349 50.3401C30.4699 50.3401 31.3549 50.5451 32.2249 50.8651C32.4399 50.9451 32.6699 51.0051 32.8999 51.0451C33.9899 51.2251 34.4499 52.3301 33.7849 53.2151C33.6249 53.4301 33.4049 53.6101 33.1999 53.7851C30.8249 55.7901 28.3649 57.6851 26.0999 59.8301C23.6199 62.1751 21.2899 64.6401 19.1699 67.3051C18.0149 68.7551 16.8299 70.1951 15.9349 71.8351C14.7149 74.0751 13.7349 76.4101 13.1449 78.9051C12.8499 80.1551 12.6449 81.4051 12.7499 82.6801C12.9199 84.7601 13.6649 86.5751 15.5399 87.7001C16.5799 88.3251 17.7099 88.7801 18.9399 88.9101C19.5449 88.9751 20.1449 89.0401 20.7499 89.0701C22.3349 89.1451 23.8899 88.9351 25.3299 88.2651C26.9599 87.5101 28.3749 86.4401 29.5199 85.0351C31.4999 82.6051 33.3099 80.0451 34.8949 77.3501C36.9499 73.8651 38.8399 70.2851 40.8349 66.7651C42.1049 64.5251 43.3099 62.2451 44.7949 60.1251C45.4399 59.2051 46.5549 59.2001 47.1699 60.1451C47.7799 61.0751 48.3799 62.0151 48.9849 62.9501C49.5199 63.7701 50.0199 64.6151 50.6099 65.3851C51.7149 66.8301 52.8549 68.2451 54.0149 69.6451C56.2099 72.2901 58.2199 75.0951 60.6849 77.5151C61.5949 78.4051 62.4999 79.2901 63.5299 80.0451C64.4149 80.6901 65.2599 81.3851 66.1449 82.0351C66.8199 82.5301 67.4799 83.0701 68.2199 83.4551C70.5049 84.6501 72.8999 85.1101 75.4649 84.4001C77.2449 83.9101 78.6899 82.9351 79.9099 81.5951C80.1549 81.3301 80.3249 80.9801 80.4649 80.6401C80.6899 80.1001 80.8749 79.5401 81.0599 78.9851C81.6199 77.3301 81.9499 75.6601 81.3149 73.9401C81.2799 73.8501 81.2799 73.7451 81.2399 73.6551C81.0949 73.3401 80.9549 73.0201 80.7849 72.7201C80.5149 72.2451 80.2099 71.7901 79.9349 71.3201C79.7749 71.0501 79.6599 70.7551 79.4899 70.4951C78.4899 68.9951 77.4399 67.5401 76.1699 66.2501C76.0049 66.0851 75.8449 65.9101 75.7049 65.7201C74.1849 63.7001 72.4149 61.9001 70.7249 60.0251C69.1699 58.2951 67.5999 56.5801 66.2599 54.6701C66.1849 54.5601 66.0699 54.4751 65.9599 54.4001C64.9799 53.7001 65.0249 52.5801 66.0749 51.9951C66.4299 51.7951 66.8199 51.6601 67.1999 51.5001C69.1849 50.6701 71.1749 49.8601 73.1499 49.0101C75.3399 48.0651 77.5149 47.0901 79.6899 46.1151C81.0999 45.4851 82.5099 44.8601 83.8999 44.1851C85.2649 43.5201 86.4799 42.6401 87.4099 41.4051C87.6299 41.1101 87.9099 40.8551 88.1499 40.5751C88.3049 40.4001 88.4699 40.2251 88.5799 40.0201C89.0499 39.1201 89.5549 38.2301 89.9499 37.3001C90.3249 36.4051 90.7499 35.4801 90.5999 34.4751C90.4549 33.5151 90.2099 32.5651 89.9749 31.6201C89.9199 31.4051 89.7599 31.2001 89.6099 31.0251C88.8349 30.1201 88.0499 29.2251 87.2599 28.3301C87.1599 28.2151 87.0299 28.1001 86.8899 28.0451C86.0049 27.7051 85.2049 27.1201 84.2149 27.0501C84.0399 27.0351 83.8699 26.9901 83.6949 26.9501C82.6049 26.6851 81.5149 26.7501 80.4399 26.9951C79.2799 27.2601 78.1349 27.6001 76.9749 27.8901C75.9399 28.1501 75.0299 28.7001 74.0399 29.0701C71.9749 29.8401 70.0499 30.8551 68.2149 32.0751C66.0949 33.4801 63.9499 34.8401 61.8049 36.2001C60.6299 36.9401 59.4399 37.6501 58.2349 38.3351C57.6299 38.6801 56.9599 38.9001 56.2849 38.4951C55.6149 38.0901 55.6099 37.4151 55.6249 36.7301C55.6699 34.4801 55.8649 32.2401 56.0749 30.0001C56.4849 25.6751 57.2249 21.4001 58.0299 17.1351C58.1099 16.7151 58.1599 16.2851 58.2049 15.8601C58.2849 15.1201 58.3299 14.3801 58.4199 13.6401C58.6249 11.9551 58.6199 10.2801 58.0849 8.65013C57.8999 8.08013 57.6949 7.49013 57.3649 7.00013C56.9549 6.38513 56.4199 5.86013 55.9299 5.30013C55.4449 4.75013 54.9049 4.29513 54.1899 4.05013C53.5999 3.84513 53.0399 3.56013 52.4599 3.33013C52.0999 3.19013 51.7299 3.01013 51.3499 2.97513C49.6949 2.83513 48.0749 2.99013 46.5299 3.68513C45.1199 4.32013 43.7599 5.02513 42.4649 5.89013C40.7549 7.03013 39.3749 8.46013 38.2749 10.1751C37.6849 11.0951 37.3199 12.1251 37.2999 13.2101C37.2849 14.3001 37.3899 15.3951 37.5099 16.4801C37.6849 18.0351 37.9049 19.5801 38.3499 21.0901C38.3699 21.1651 38.3699 21.2451 38.3849 21.3201C38.5549 22.1051 38.7099 22.8901 38.8949 23.6651C39.1449 24.7101 39.4449 25.7451 39.6699 26.7951C40.0349 28.5151 40.3749 30.2401 40.6949 31.9701C41.0249 33.7551 41.4949 35.5251 41.5649 37.3701L41.5749 37.3501Z" fill="black"/>
</svg>
