<svg width="96" height="94" viewBox="0 0 96 94" fill="none" xmlns="http://www.w3.org/2000/svg">
<path d="M33.845 53.66C33.545 53.59 33.39 53.55 33.23 53.52C31.65 53.235 30.065 53.04 28.465 52.915C26.1 52.73 23.735 52.5 21.38 52.24C19.665 52.05 17.955 51.785 16.245 51.545C15.31 51.415 14.415 51.13 13.605 50.635C11.77 49.525 9.87 48.515 8.215 47.135C6.41 45.63 4.585 44.15 3.05 42.34C1.69 40.735 0.904996 38.905 0.419996 36.89C-3.63588e-06 35.155 -0.00500369 33.425 0.199996 31.68C0.344996 30.405 0.844996 29.265 1.67 28.29C3.85 25.705 6.66 24.265 9.99 23.805C12.21 23.5 14.4 23.66 16.515 24.42C17.435 24.75 18.33 25.15 19.22 25.56C22.215 26.945 25.03 28.635 27.66 30.635C28.735 31.455 29.835 32.25 30.87 33.12C31.855 33.95 32.795 34.84 33.715 35.74C34.495 36.505 35.345 37.15 36.3 37.68C37.34 38.255 38.345 38.88 39.37 39.48C39.725 39.69 40.095 39.875 40.52 40.105C40.555 39.9 40.6 39.77 40.605 39.64C40.67 38.09 40.47 36.57 40.18 35.05C39.805 33.11 39.495 31.155 39.105 29.22C38.72 27.305 38.24 25.405 37.85 23.49C37.365 21.105 36.895 18.715 36.47 16.32C36.015 13.77 36.5 11.305 37.315 8.88998C37.755 7.58498 38.69 6.63498 39.69 5.72998C42.235 3.43498 45.175 1.83498 48.415 0.754981C49.815 0.289981 51.27 0.209981 52.72 0.0649809C54.245 -0.0900191 55.7 0.184981 57.145 0.639981C59.785 1.46998 61.51 3.20498 62.405 5.80998C63.135 7.93498 63.15 10.1 62.84 12.29C62.255 16.435 61.46 20.54 60.71 24.66C60.195 27.505 59.83 30.38 59.395 33.24C59.22 34.415 58.975 35.58 59.035 36.775C59.045 36.975 59.055 37.18 59.065 37.43C59.19 37.405 59.27 37.405 59.335 37.37C60.835 36.515 62.34 35.665 63.83 34.79C65.015 34.09 66.155 33.325 67.35 32.64C68.685 31.875 70.045 31.145 71.415 30.445C73.25 29.51 75.105 28.61 76.955 27.7C77.27 27.545 77.595 27.39 77.93 27.29C79.62 26.77 81.295 26.18 83.01 25.775C85.105 25.285 87.23 25.335 89.325 25.87C92.19 26.6 94.11 28.37 95.1 31.15C96.075 33.895 96.17 36.69 95.555 39.52C95.17 41.29 94.215 42.745 92.885 43.935C92.19 44.56 91.44 45.14 90.65 45.625C89.14 46.55 87.545 47.32 85.88 47.935C83.755 48.725 81.64 49.55 79.51 50.325C76.655 51.365 73.835 52.495 71.05 53.71C70.365 54.01 69.69 54.325 68.93 54.675C69.105 54.92 69.22 55.11 69.365 55.27C69.85 55.815 70.35 56.345 70.84 56.885C71.05 57.115 71.265 57.345 71.47 57.58C73.705 60.19 75.945 62.79 78.165 65.41C79.395 66.86 80.765 68.165 82.175 69.43C83.275 70.42 84.29 71.495 85.18 72.68C86.17 73.995 86.795 75.45 86.875 77.105C86.925 78.165 86.96 79.23 86.91 80.285C86.825 82.045 86.155 83.595 85.065 84.975C82.89 87.73 80.07 89.245 76.55 89.425C75.575 89.475 74.595 89.52 73.62 89.6C71.35 89.795 69.41 88.96 67.65 87.645C66.09 86.48 64.755 85.09 63.67 83.455C63.165 82.695 62.565 81.995 61.96 81.31C59.765 78.835 57.585 76.345 55.56 73.72C54.15 71.89 52.69 70.095 51.29 68.26C50.545 67.285 49.89 66.24 49.155 65.26C48.61 64.53 48.005 63.845 47.425 63.135C46.965 63.21 46.76 63.525 46.555 63.83C45.26 65.77 44.015 67.74 42.665 69.64C41.27 71.605 40.13 73.695 39.11 75.865C37.79 78.685 36.075 81.27 34.395 83.88C33.695 84.965 33.04 86.075 32.375 87.185C31.16 89.22 29.62 90.935 27.59 92.19C26.13 93.09 24.58 93.695 22.865 93.855C21.18 94.015 19.5 94.075 17.815 93.885C17.425 93.84 17.02 93.78 16.66 93.645C14.62 92.87 12.915 91.66 11.765 89.765C11.53 89.375 11.3 88.975 11.05 88.59C10.675 88.005 10.43 87.365 10.305 86.685C9.93 84.575 9.89 82.465 10.32 80.355C10.715 78.42 11.62 76.715 12.74 75.12C13.835 73.565 15.17 72.215 16.495 70.86C18.55 68.76 20.555 66.615 22.65 64.56C24.37 62.87 26.18 61.265 27.975 59.65C29.815 57.99 31.675 56.35 33.28 54.455C33.465 54.24 33.625 54 33.875 53.675L33.845 53.66Z" fill="white"/>
</svg> 