<svg width="98" height="24" viewBox="0 0 98 24" fill="none" xmlns="http://www.w3.org/2000/svg">
<path d="M19.9901 1.99499C21.4201 1.92999 23.5701 1.82999 25.7151 1.73499C27.8451 1.63999 29.9751 1.59999 32.1001 1.43499C34.6351 1.23499 37.1701 1.26499 39.7101 1.18499C42.4851 1.09999 45.2651 0.954991 48.0401 0.924991C51.3551 0.889991 54.6751 0.889994 57.9901 0.989994C62.6751 1.12999 67.3551 1.36999 72.0401 1.56499C73.4301 1.62499 74.8151 1.72999 76.2051 1.73499C77.6651 1.74499 79.1301 1.65999 80.5901 1.61499C81.1801 1.59499 81.7751 1.55499 82.3651 1.56499C85.5151 1.61499 88.6601 1.44499 91.8051 1.27999C92.3551 1.24999 92.9201 1.26999 93.4701 1.34499C95.0601 1.55999 96.2951 2.83999 96.4551 4.47999C96.6001 5.97499 96.6751 7.46999 96.7951 8.96999C96.9651 11.095 97.1301 13.215 97.3201 15.34C97.4751 17.12 97.4351 18.895 97.3201 20.67C97.2951 21.07 97.1901 21.48 97.0301 21.845C96.8201 22.33 96.4401 22.59 95.8501 22.59C92.8101 22.57 89.7751 22.55 86.7351 22.59C85.3101 22.61 83.8901 22.77 82.4701 22.865C81.6951 22.915 80.9201 23 80.1401 23.005C76.9151 23.02 73.6901 23.005 70.4701 23.02C69.5051 23.02 68.5451 23.075 67.5801 23.095C67.1351 23.105 66.6901 23.095 66.2451 23.095C64.1901 23.075 62.1351 23 60.0801 23.04C55.3001 23.14 50.5251 23.005 45.7451 22.96C43.4151 22.935 41.0851 22.785 38.7451 22.81C34.6501 22.855 30.5551 22.88 26.4651 22.895C24.8551 22.895 23.2451 22.82 21.6301 22.82C20.4251 22.82 19.2251 22.915 18.0201 22.895C16.2051 22.865 14.3951 22.77 12.5801 22.71C12.2851 22.7 11.9851 22.69 11.6901 22.69C9.22508 22.69 6.76008 22.69 4.29508 22.675C3.85508 22.675 3.40008 22.645 2.97008 22.555C2.63508 22.48 2.31508 22.315 2.01508 22.14C1.73508 21.975 1.59008 21.695 1.54508 21.36C1.34508 19.855 1.12008 18.355 0.94008 16.845C0.85508 16.11 0.83508 15.37 0.81008 14.63C0.76508 13.315 0.74008 12.005 0.70008 10.69C0.68008 10.135 0.63508 9.57999 0.61008 9.02999C0.59508 8.73499 0.58008 8.43499 0.59508 8.13999C0.68008 6.56499 0.86008 5.00499 1.22008 3.46499C1.31008 3.08499 1.50008 2.81999 1.88508 2.73999C2.52008 2.60999 3.15008 2.46999 3.79008 2.37499C5.44008 2.12999 7.10008 1.99499 8.77008 1.99999C12.2701 2.01999 15.7751 2.00499 19.9901 2.00499V1.99499Z" fill="black"/>
</svg>
