<svg width="62" height="98" viewBox="0 0 62 98" fill="none" xmlns="http://www.w3.org/2000/svg">
<path d="M61.7051 30.6051C61.6701 33.2301 61.4901 35.8301 60.9501 38.4001C60.7101 39.5501 60.3601 40.6601 59.8901 41.7401C58.6901 44.5151 57.4651 47.2801 56.0451 49.9551C55.3701 51.2301 54.6701 52.4951 53.9801 53.7601C53.3151 54.9751 52.6051 56.1651 51.9851 57.4051C50.8201 59.7451 49.6601 62.0851 48.8901 64.6001C48.4551 66.0151 47.9551 67.4151 47.4651 68.8151C47.2751 69.3651 47.0301 69.9001 46.8351 70.4501C46.5651 71.2001 46.3001 71.9551 46.0501 72.7151C45.8151 73.4351 45.6501 74.1851 45.3751 74.8901C44.4151 77.3651 43.4301 79.8251 42.4401 82.2851C42.2101 82.8651 41.9501 83.4351 41.6701 83.9901C40.7201 85.8701 39.8351 87.7801 38.6451 89.5301C38.0401 90.4151 37.5001 91.3451 36.9451 92.2651C36.0051 93.8301 34.7251 95.0751 33.3301 96.2201C32.9951 96.4951 32.5651 96.7051 32.1401 96.8201C31.2601 97.0651 30.3551 97.2251 29.4601 97.4201C28.3051 97.6701 27.3601 97.3151 26.6901 96.3651C25.8451 95.1701 25.0251 93.9551 24.2651 92.7101C22.9501 90.5601 21.8551 88.2951 20.7751 86.0201C19.2601 82.8301 17.7301 79.6501 16.0251 76.5551C14.8501 74.4201 13.8251 72.2001 12.6451 70.0701C11.3001 67.6451 10.4701 65.0251 9.52008 62.4501C8.71008 60.2551 7.86008 58.0701 6.99008 55.9001C6.39508 54.4151 5.69508 52.9751 5.11508 51.4851C4.23508 49.2351 3.39008 46.9701 2.57508 44.6951C2.09508 43.3551 1.64008 42.0001 1.30508 40.6201C0.665078 37.9801 0.250078 35.3001 0.295078 32.5701C0.305078 32.0851 0.355077 31.5951 0.390077 31.1101C0.500077 29.6701 0.555078 28.2251 0.735078 26.7951C1.01508 24.5851 1.51508 22.4151 2.24508 20.3101C2.65008 19.1301 3.07508 17.9551 3.58008 16.8151C3.87508 16.1451 4.31508 15.5301 4.75008 14.9351C5.59008 13.7851 6.46508 12.6601 7.33508 11.5351C8.10008 10.5501 8.86008 9.55506 9.66008 8.60006C10.0601 8.12506 10.5051 7.67506 10.9951 7.29506C12.9651 5.77006 14.8851 4.15506 17.1951 3.12506C17.5701 2.96006 17.9251 2.75506 18.2951 2.57506C18.5051 2.47006 18.7101 2.35006 18.9351 2.28506C21.9701 1.42006 24.9851 0.420057 28.2001 0.510057C30.0701 0.560057 31.9451 0.620057 33.8001 0.820057C35.4451 1.00006 37.0651 1.37506 38.6951 1.67006C38.7901 1.68506 38.8901 1.69006 38.9801 1.72506C40.1451 2.13506 41.3601 2.31506 42.5601 2.57506C44.1451 2.92006 45.5651 3.66006 46.9451 4.47006C47.9051 5.03506 48.8301 5.65506 49.7751 6.23506C50.4351 6.64006 50.9951 7.14506 51.4551 7.76006C53.2551 10.1901 55.1151 12.5801 56.6201 15.2101C57.7101 17.1201 58.7101 19.0901 59.6951 21.0601C60.1801 22.0351 60.5451 23.0701 60.9601 24.0751C61.2601 24.8051 61.4351 25.5651 61.4851 26.3451C61.5701 27.7651 61.6351 29.1851 61.7051 30.6101V30.6051ZM59.0051 30.6451C58.9351 29.2801 58.8851 27.9201 58.7801 26.5601C58.7401 26.0601 58.6201 25.5551 58.4401 25.0851C58.0551 24.0651 57.6651 23.0401 57.1801 22.0651C56.2851 20.2651 55.3751 18.4701 54.3801 16.7301C52.8951 14.1351 51.0651 11.7701 49.2751 9.38506C49.0151 9.03506 48.6451 8.74506 48.2801 8.50006C47.3901 7.90506 46.4751 7.33506 45.5551 6.78506C44.0001 5.86006 42.3751 5.13006 40.5451 4.94506C40.1401 4.90506 39.7501 4.76006 39.3551 4.66006C38.7901 4.52006 38.2251 4.35506 37.6551 4.25006C36.6401 4.06006 35.6051 3.96506 34.6051 3.71506C32.4951 3.19006 30.3351 3.31506 28.2001 3.24006C26.0101 3.16506 23.8501 3.56506 21.7801 4.34006C21.5801 4.41506 21.3701 4.48506 21.1601 4.51506C20.2151 4.65006 19.3951 5.09506 18.5401 5.48006C16.3951 6.44506 14.6151 7.94506 12.7701 9.35006C12.3851 9.64506 12.0301 9.99506 11.7201 10.3651C10.9501 11.3001 10.2101 12.2551 9.47008 13.2101C8.65008 14.2751 7.86008 15.3701 7.02008 16.4151C6.51508 17.0451 6.10008 17.7201 5.79008 18.4651C4.78008 20.9301 4.04508 23.4751 3.58008 26.0951C3.45008 26.8201 3.41008 27.5651 3.34508 28.3051C3.28008 29.0801 3.29008 29.8701 3.16508 30.6401C2.86008 32.5151 2.97008 34.3901 3.23008 36.2401C3.53508 38.4401 3.93508 40.6351 4.74508 42.7251C4.89508 43.1051 5.00508 43.5001 5.14508 43.8851C5.95508 46.0601 6.74008 48.2401 7.59008 50.4001C8.17508 51.8901 8.87508 53.3301 9.47008 54.8151C10.3701 57.0601 11.3001 59.3001 12.0701 61.5901C13.2201 65.0251 14.6851 68.3051 16.4101 71.4851C17.8801 74.1951 19.2951 76.9301 20.7101 79.6701C21.2651 80.7451 21.7301 81.8651 22.2801 82.9401C23.6451 85.6151 24.7901 88.4001 26.3851 90.9601C27.0051 91.9551 27.6101 92.9551 28.2551 93.9301C28.5201 94.3301 28.8751 94.7501 29.4251 94.6651C30.1151 94.5601 30.7951 94.3651 31.4751 94.2001C31.5851 94.1751 31.6851 94.0951 31.7751 94.0201C32.8351 93.0951 33.8601 92.1401 34.6051 90.9201C35.2151 89.9201 35.8151 88.9151 36.4601 87.9401C37.7951 85.9101 38.8801 83.7451 39.8251 81.5251C41.2801 78.1001 42.7201 74.6651 43.7301 71.0651C44.0251 70.0201 44.5251 69.0301 44.8901 68.0051C45.3801 66.6251 45.8701 65.2451 46.3001 63.8501C47.1201 61.1701 48.3451 58.6651 49.5951 56.1701C50.2251 54.9151 50.9401 53.7051 51.6151 52.4751C52.2901 51.2451 52.9801 50.0201 53.6301 48.7751C54.7351 46.6451 55.7851 44.4851 56.7251 42.2801C57.3901 40.7201 58.0901 39.1751 58.3901 37.4851C58.7901 35.2301 58.9601 32.9601 59.0051 30.6701V30.6451Z" fill="black"/>
</svg>
