<svg width="60" height="96" viewBox="0 0 60 96" fill="none" xmlns="http://www.w3.org/2000/svg">
<path d="M0.775062 28.435C0.725062 26.835 1.34006 24.205 2.15506 21.605C2.35006 20.98 2.53506 20.345 2.70006 19.71C3.00506 18.54 3.49006 17.445 4.05006 16.38C6.36006 11.955 9.60006 8.33004 13.6051 5.37504C14.5701 4.66504 15.5651 3.98004 16.6001 3.38504C19.0501 1.98004 21.6851 1.07504 24.5101 0.890044C25.9451 0.800044 27.3551 0.550043 28.7751 0.425043C30.8951 0.240043 32.9901 0.435044 35.0451 1.00504C36.0901 1.29504 37.1501 1.52504 38.2001 1.78504C40.9851 2.47004 43.6301 3.48504 46.0301 5.07504C47.4301 6.00504 48.5751 7.22504 49.7201 8.43004C51.6151 10.43 53.3351 12.58 54.6951 14.99C56.1851 17.635 57.7251 20.265 58.7551 23.145C59.1651 24.285 59.3701 25.46 59.4451 26.665C59.6151 29.415 59.2201 32.11 58.7251 34.8C58.0001 38.73 56.7601 42.49 54.9901 46.065C53.6901 48.685 52.2001 51.2 50.6751 53.7C49.1101 56.265 47.7251 58.92 46.4301 61.635C44.6951 65.28 43.3051 69.06 41.8401 72.81C40.9501 75.08 40.2851 77.435 39.4451 79.725C38.5501 82.16 37.6601 84.605 36.6001 86.965C35.8301 88.67 34.8201 90.27 33.8501 91.875C32.9851 93.31 31.6451 94.185 30.0951 94.755C29.3701 95.02 28.6201 95.07 27.8601 95.005C27.1951 94.945 26.6451 94.63 26.1501 94.21C25.4301 93.6 24.8651 92.865 24.4501 92.02C23.3901 89.865 22.3601 87.7001 21.3101 85.54C20.7851 84.46 20.2901 83.37 19.9551 82.21C19.8751 81.94 19.6951 81.695 19.5501 81.445C19.1851 80.805 18.8201 80.165 18.4451 79.535C17.6451 78.205 16.9601 76.82 16.2801 75.43C15.6251 74.09 14.8501 72.815 14.1301 71.51C13.7551 70.83 13.4001 70.145 13.0301 69.465C11.9001 67.38 11.1301 65.145 10.2051 62.97C9.54006 61.4 8.93006 59.81 8.19506 58.27C7.02506 55.815 6.20006 53.23 5.29006 50.68C5.03506 49.97 4.81006 49.245 4.54506 48.54C3.88006 46.78 3.35506 44.98 2.88006 43.16C2.37506 41.21 1.80006 39.28 1.51506 37.28C1.15006 34.73 0.860062 32.17 0.785062 28.44L0.775062 28.435Z" fill="black"/>
</svg>
