<svg width="92" height="92" viewBox="0 0 92 92" fill="none" xmlns="http://www.w3.org/2000/svg">
<path d="M35.6501 56.5251C35.4951 56.5151 35.3801 56.5001 35.2601 56.5001C31.3501 56.5001 27.4351 56.5901 23.5301 56.4901C21.0951 56.4301 18.6651 56.6151 16.2351 56.5351C14.7951 56.4851 13.3551 56.4201 11.9151 56.3601C11.6351 56.3501 11.3601 56.3401 11.0801 56.3351C8.75013 56.3351 6.42013 56.3351 4.09013 56.3251C3.67513 56.3251 3.25013 56.3051 2.85013 56.2151C2.52013 56.1401 2.20013 55.9751 1.90513 55.8051C1.66013 55.6601 1.53013 55.4151 1.49013 55.1151C1.30013 53.7051 1.08013 52.3001 0.910129 50.8851C0.825129 50.1801 0.810129 49.4651 0.790129 48.7551C0.745129 47.2801 0.725129 45.8051 0.680129 44.3301C0.670129 43.9151 0.58013 43.5001 0.59013 43.0851C0.62013 41.4651 0.815129 39.8701 1.18513 38.2901C1.27013 37.9251 1.46013 37.6901 1.81513 37.6151C2.41013 37.4901 3.00513 37.3601 3.60513 37.2701C5.15513 37.0401 6.71013 36.9101 8.28013 36.9201C10.5401 36.9401 12.8001 36.9001 15.0601 36.9301C18.3501 36.9701 21.6301 36.8101 24.9101 36.6451C26.6451 36.5601 28.3801 36.4901 30.1201 36.4151C31.9101 36.3401 33.6951 36.2751 35.4851 36.2001C35.5851 36.2001 35.6901 36.1851 35.8601 36.1701C35.8601 35.9901 35.8601 35.8251 35.8601 35.6601C35.8601 31.5951 35.8601 27.5251 35.8501 23.4601C35.8501 21.4101 35.8051 19.3601 35.8301 17.3101C35.8551 15.5401 35.9501 13.7701 36.0101 11.9951C36.0201 11.7501 36.0251 11.5101 36.0251 11.2651C36.0251 8.90012 36.0251 6.53512 36.0451 4.17512C36.0451 3.69512 36.1251 3.20012 36.2551 2.74012C36.4201 2.17012 36.7901 1.82012 37.4451 1.74512C38.7901 1.60012 40.1251 1.38012 41.4701 1.19512C41.5901 1.18012 41.7101 1.17512 41.8351 1.17012C42.9801 1.11512 44.1201 1.05012 45.2651 1.00012C45.6651 0.985117 46.0651 1.01012 46.4601 0.990117C47.3601 0.955117 48.2651 0.870117 49.1651 0.870117C50.3101 0.870117 51.4551 0.960117 52.5851 1.17512C53.0451 1.26512 53.5051 1.37512 53.9651 1.44012C54.4251 1.50512 54.6951 1.75512 54.7801 2.19012C54.9101 2.85512 55.0251 3.52012 55.1301 4.19012C55.3751 5.81012 55.4501 7.44012 55.4401 9.07512C55.4251 11.8551 55.4001 14.6401 55.4501 17.4201C55.4951 20.0251 55.6151 22.6301 55.7151 25.2351C55.7851 27.0601 55.8851 28.8801 55.9651 30.7051C56.0351 32.3001 56.0901 33.9001 56.1551 35.4951C56.1601 35.6501 56.1701 35.8051 56.1801 36.0051C56.3451 36.0251 56.4951 36.0551 56.6451 36.0601C58.9701 36.1601 61.3001 36.2501 63.6251 36.3501C66.2151 36.4601 68.8001 36.6001 71.3901 36.6651C72.8101 36.7001 74.2351 36.6001 75.6601 36.5601C76.2151 36.5451 76.7701 36.5051 77.3251 36.5101C80.2801 36.5551 83.2301 36.4001 86.1851 36.2401C86.7051 36.2151 87.2301 36.2351 87.7451 36.3001C89.1451 36.4851 90.2951 37.5751 90.5051 38.9801C90.6551 39.9751 90.7001 40.9851 90.7751 41.9901C90.9351 44.1551 91.0301 46.3301 91.2601 48.4901C91.4401 50.1901 91.4651 51.8901 91.4201 53.5901C91.4101 54.0051 91.3851 54.4251 91.3151 54.8351C91.2651 55.1201 91.1601 55.4101 91.0151 55.6601C90.7951 56.0451 90.4651 56.2301 89.9851 56.2251C87.0151 56.2101 84.0401 56.1951 81.0701 56.2251C79.8901 56.2401 78.7151 56.3801 77.5351 56.4651C76.7551 56.5201 75.9751 56.6101 75.1951 56.6151C72.1701 56.6351 69.1451 56.6151 66.1201 56.6301C65.2351 56.6301 64.3501 56.6851 63.4651 56.7001C62.9801 56.7101 62.4901 56.6951 62.0051 56.6901C60.2151 56.6701 58.4251 56.6551 56.6351 56.6401C56.5501 56.6401 56.4651 56.6601 56.3651 56.6701C56.3401 56.7401 56.3051 56.8051 56.3001 56.8651C56.2351 58.0101 56.1651 59.1551 56.1201 60.3001C56.0151 62.9051 55.9151 65.5101 55.8251 68.1151C55.7601 69.9201 55.6051 71.7351 55.6901 73.5351C55.8201 76.3851 55.8151 79.2351 55.8901 82.0801C55.9301 83.4851 56.0351 84.8901 56.1001 86.3001C56.1201 86.7351 56.1201 87.1701 56.0951 87.6051C55.9901 89.4001 54.7401 90.6901 52.9501 90.8401C51.5501 90.9551 50.1401 91.0401 48.7401 91.1501C46.7151 91.3101 44.6901 91.5001 42.6601 91.6451C40.9601 91.7651 39.2551 91.7551 37.5601 91.5801C37.3051 91.5551 37.0451 91.4701 36.8201 91.3551C36.3751 91.1301 36.1251 90.7901 36.1301 90.2401C36.1501 87.4401 36.1201 84.6451 36.1451 81.8451C36.1601 80.1901 35.9151 78.5551 35.8001 76.9051C35.7651 76.3851 35.7401 75.8651 35.7351 75.3451C35.7301 72.5101 35.7351 69.6801 35.7251 66.8451C35.7251 65.8351 35.6751 64.8301 35.6551 63.8201C35.6451 63.3001 35.6551 62.7751 35.6601 62.2551C35.6801 60.5001 35.7001 58.7451 35.7151 56.9901C35.7151 56.8401 35.6901 56.6851 35.6751 56.5151L35.6501 56.5251Z" fill="black"/>
</svg>
