<svg width="100" height="100" viewBox="0 0 100 100" fill="none" xmlns="http://www.w3.org/2000/svg">
<path d="M96.25 74.0251C96.075 73.0151 95.77 72.0301 95.61 71.0201C95.49 70.2451 95.06 69.8601 94.355 69.6801C94.255 69.6551 94.155 69.6251 94.055 69.6001C93.065 69.3451 92.055 69.3801 91.045 69.3901C88.835 69.4151 86.625 69.4451 84.415 69.4851C83.855 67.9101 82.695 66.5501 81.21 65.7751C79.41 64.8351 77.175 64.7851 75.33 65.6401C74.325 66.1051 73.45 66.8201 72.655 67.5951C72.08 68.1551 71.535 68.7601 71.18 69.4701C64.385 69.4001 57.585 69.3201 50.79 69.2901C47.05 69.2751 43.31 69.3451 38.8 69.3851C35.695 69.4351 31.815 69.5251 27.935 69.5601C23.065 69.6051 18.195 69.5951 13.325 69.6251C11.845 69.6351 10.37 69.6951 8.88998 69.7401C8.38498 69.7551 7.87998 69.7901 7.37998 69.8401C7.16498 69.8651 6.87998 69.8951 6.75498 70.0351C6.30998 70.5451 6.06498 71.1551 6.09998 71.8451C6.11498 72.1551 6.17498 72.4651 6.20498 72.7751C6.28498 73.7101 6.37998 74.6301 6.81998 75.4951C6.99998 75.8551 7.20498 76.0551 7.57998 76.0901C8.16998 76.1401 8.75498 76.2051 9.34498 76.2101C12.37 76.2351 15.4 76.2501 18.425 76.2601C21.295 76.2701 24.165 76.2651 27.035 76.2701C32.48 76.2701 37.925 76.2651 43.37 76.2701C50.155 76.2801 56.94 76.3051 63.72 76.3201C66.155 76.3251 68.59 76.3201 71.02 76.3201C71.04 76.4451 71.06 76.5701 71.08 76.6951C71.235 77.6501 71.47 78.6651 72.185 79.3201C72.605 79.7051 73.145 79.9251 73.685 80.1001C76.605 81.0301 79.895 80.7151 82.59 79.2501C83.235 78.9001 83.865 78.4701 84.26 77.8501C84.575 77.3551 84.72 76.7751 84.85 76.2051C85.055 76.2001 85.255 76.1951 85.46 76.1951C88.59 76.1951 91.725 76.1951 94.855 76.1851C95.16 76.1851 95.475 76.1251 95.775 76.0501C96.045 75.9801 96.23 75.7701 96.245 75.4851C96.27 75.0001 96.33 74.5051 96.25 74.0351V74.0251Z" fill="black"/>
<path d="M94.6301 51.0599C94.5251 50.7499 94.4751 50.4199 94.4151 50.0949C94.3001 49.4599 94.1651 48.8299 94.1001 48.1899C94.0201 47.4399 93.6001 47.0149 92.9101 46.8599C92.2851 46.7149 91.6501 46.5799 91.0151 46.5549C89.8701 46.5099 88.7201 46.5499 87.5701 46.5599C83.6901 46.6049 79.8101 46.6849 75.9351 46.6849C72.7851 46.6849 69.6401 46.5949 66.4901 46.5499C63.9751 46.5149 61.4551 46.4749 58.9401 46.4449C58.6901 45.9399 58.2651 45.5449 57.8301 45.1899C55.4401 43.2699 52.2601 42.3749 49.2201 42.7699C48.4901 42.8649 47.7501 43.0399 47.1601 43.4749C46.6901 43.8199 46.3401 44.3099 46.0151 44.7949C45.6551 45.3349 45.3101 45.8849 44.9751 46.4449C43.3451 46.4649 41.7151 46.4899 40.0901 46.5099C37.8301 46.5399 35.5701 46.5799 33.3051 46.5999C26.5201 46.6549 19.7351 46.6999 12.9501 46.7599C11.3651 46.7749 9.78509 46.8099 8.20509 46.8599C7.37009 46.8849 6.54009 46.9649 5.71009 47.0399C5.55009 47.0549 5.34009 47.1149 5.25009 47.2299C4.83509 47.7599 4.59009 48.3749 4.59009 49.0549C4.59009 49.3999 4.66509 49.7449 4.69009 50.0899C4.75509 51.1149 4.85509 52.1249 5.30509 53.0749C5.44009 53.3599 5.59509 53.5499 5.89509 53.5899C6.39509 53.6549 6.89509 53.7349 7.39509 53.7399C11.8851 53.7799 16.3701 53.8149 20.8601 53.8349C24.2501 53.8499 27.6451 53.8449 31.0351 53.8349C35.0701 53.8299 39.1051 53.8099 43.1451 53.7999C43.5751 53.7999 44.0051 53.7999 44.4351 53.7999C44.7151 54.5449 45.1251 55.2449 45.6501 55.8399C46.9901 57.3649 49.0601 58.2199 51.0851 58.0849C52.1901 58.0099 53.2651 57.6649 54.2851 57.2299C55.1301 56.8699 55.9651 56.4349 56.5951 55.7599C57.0901 55.2299 57.4251 54.5799 57.7001 53.8999C59.2801 53.8899 60.8551 53.8649 62.4351 53.8599C64.2251 53.8549 66.0201 53.8699 67.8101 53.8699C73.7051 53.8599 79.6051 53.8649 85.5001 53.7349C88.0901 53.6799 90.6851 53.7299 93.2751 53.7199C93.5501 53.7199 93.8301 53.6799 94.0951 53.6149C94.4451 53.5299 94.6701 53.2949 94.7101 52.9199C94.7801 52.2949 94.8401 51.6749 94.6351 51.0599H94.6301Z" fill="black"/>
<path d="M96.1449 28.5851C95.9899 27.6951 95.6949 26.8351 95.5549 25.9451C95.4249 25.0901 94.9599 24.6551 94.1599 24.4901C94.0249 24.4601 93.8899 24.4251 93.7549 24.4001C92.7549 24.2101 91.7499 24.2251 90.7399 24.2301C85.2599 24.2701 79.7799 24.3601 74.3049 24.3301C64.8599 24.2751 55.4149 24.0251 45.9699 24.1651C42.9249 24.2101 39.8799 24.2201 36.8399 24.2551C35.3449 24.2751 33.8499 24.3051 32.3549 24.3351C32.3399 23.9251 32.2649 23.5251 32.0799 23.1551C31.8299 22.6451 31.4049 22.2451 30.9599 21.8901C28.5699 19.9701 25.3899 19.0751 22.3499 19.4701C21.6199 19.5651 20.8799 19.7401 20.2899 20.1751C19.8199 20.5201 19.4699 21.0101 19.1449 21.4951C18.5199 22.4351 17.9349 23.4001 17.3949 24.3951C17.3799 24.4201 17.3649 24.4451 17.3549 24.4701C14.8799 24.4751 12.3999 24.4901 9.92493 24.5301C8.98493 24.5451 8.04993 24.6401 7.11493 24.7051C6.96493 24.7151 6.76993 24.7401 6.67993 24.8351C6.23493 25.3251 5.98993 25.9101 6.01493 26.5851C6.02493 26.8601 6.08493 27.1351 6.11493 27.4101C6.20493 28.3601 6.31493 29.3001 6.78993 30.1651C6.94493 30.4451 7.11993 30.6051 7.40993 30.6401C7.88993 30.7001 8.37993 30.7601 8.86493 30.7701C10.3249 30.7901 11.7849 30.7751 13.2499 30.7801C14.7299 30.7851 16.2099 30.8001 17.6899 30.8051C17.9599 31.4301 18.3249 32.0151 18.7799 32.5301C20.1199 34.0551 22.1899 34.9101 24.2149 34.7751C25.3199 34.7001 26.3949 34.3551 27.4149 33.9201C28.2599 33.5601 29.0949 33.1251 29.7249 32.4501C30.1549 31.9901 30.4649 31.4351 30.7199 30.8551C36.8799 30.8701 43.0399 30.8751 49.1999 30.8801C53.6699 30.8801 58.1399 30.8801 62.6099 30.8801C62.6099 30.8901 62.6099 30.8951 62.6099 30.9051C64.5399 30.9051 66.4699 30.9201 68.4049 30.9051C74.1449 30.8451 79.8849 30.9351 85.6249 30.7751C88.6849 30.6901 91.7499 30.7651 94.8099 30.7501C95.1149 30.7501 95.4299 30.6801 95.7299 30.6051C95.9849 30.5401 96.1699 30.3501 96.1799 30.0851C96.1999 29.5851 96.2399 29.0701 96.1549 28.5851H96.1449Z" fill="black"/>
</svg>
