<svg width="100" height="100" viewBox="0 0 100 100" fill="none" xmlns="http://www.w3.org/2000/svg">
<path d="M51.35 77.5551C48.2 77.5251 45.05 77.4801 41.9 77.4751C38.28 77.4651 34.655 77.4951 31.035 77.5001C28.61 77.5001 26.185 77.5151 23.76 77.5001C19.06 77.4751 14.36 77.4401 9.66496 77.3901C9.13496 77.3851 8.59996 77.2701 8.06996 77.1701C7.85996 77.1301 7.66996 77.0151 7.59996 76.7601C7.44996 76.2101 7.21996 75.6701 7.13996 75.1101C6.99496 74.0501 6.92996 72.9801 6.83496 71.9101C6.81996 71.7601 6.83496 71.6051 6.80996 71.4551C6.61996 70.4801 6.94496 69.6001 7.33496 68.7351C7.38996 68.6101 7.57496 68.4951 7.71996 68.4601C8.02996 68.3801 8.34996 68.3351 8.66496 68.3101C10.595 68.1701 12.53 68.0601 14.47 68.0751C17.015 68.0951 19.555 68.1101 22.1 68.0751C26.715 68.0051 31.33 67.8951 35.94 67.8051C38.3 67.7601 40.655 67.7101 43.015 67.6901C48.12 67.6501 53.22 67.5851 58.325 67.6151C62.45 67.6401 66.575 67.7801 70.7 67.8701C72.265 67.9051 73.83 67.9501 75.4 67.9651C76.475 67.9751 77.555 67.9401 78.635 67.9251C79.41 67.9151 80.185 67.9001 80.96 67.8851C83.8549 67.8401 86.755 67.7901 89.65 67.7651C90.42 67.7601 91.2 67.8001 91.965 67.9051C92.3849 67.9601 92.8 68.1551 93.19 68.3501C93.645 68.5801 93.915 68.9651 93.985 69.5051C94.165 70.8751 94.335 72.2451 94.595 73.6001C94.75 74.4051 94.805 75.2001 94.76 76.0051C94.7 77.0201 94.355 77.3551 93.345 77.3551C91.14 77.3551 88.93 77.3351 86.725 77.3601C84.47 77.3901 82.215 77.4651 79.96 77.5201C79.575 77.5301 79.185 77.5401 78.8 77.5451C75.025 77.5601 71.255 77.5801 67.48 77.5851C64.145 77.5901 60.81 77.5851 57.475 77.5851C55.435 77.5851 53.4 77.5851 51.36 77.5851C51.36 77.5751 51.36 77.5601 51.36 77.5501L51.35 77.5551Z" fill="black"/>
<path d="M47.8301 54.9601C46.3501 54.9401 43.6051 54.8751 40.8551 54.8701C37.0151 54.8601 33.1751 54.9051 29.3301 54.9101C27.6301 54.9101 25.9251 54.8701 24.2251 54.8651C18.8501 54.8451 13.4801 54.8351 8.10507 54.8101C7.47007 54.8101 6.83007 54.7351 6.19507 54.6651C5.71507 54.6151 5.41007 54.3701 5.32007 53.8451C5.24007 53.3851 5.01007 52.9451 4.95007 52.4851C4.82007 51.4351 4.75007 50.3801 4.66007 49.3251C4.64507 49.1751 4.65507 49.0201 4.63007 48.8701C4.45507 47.8951 4.76007 47.0051 5.16007 46.1451C5.22507 46.0101 5.43507 45.8901 5.59507 45.8601C6.04007 45.7751 6.49507 45.7151 6.94507 45.6951C8.47507 45.6151 10.0051 45.5101 11.5401 45.4951C16.1051 45.4551 20.6701 45.4801 25.2351 45.4251C30.1851 45.3651 35.1401 45.2501 40.0901 45.1351C45.9201 44.9951 51.7451 44.9751 57.5751 45.0551C62.8451 45.1301 68.1201 45.2651 73.3901 45.3751C73.7451 45.3801 74.1001 45.3901 74.4501 45.3851C78.0201 45.3401 81.5901 45.2901 85.1651 45.2401C86.2601 45.2251 87.3551 45.1551 88.4501 45.1851C89.0801 45.2001 89.7151 45.3351 90.3401 45.4701C90.6251 45.5301 90.9001 45.7001 91.1551 45.8601C91.5101 46.0851 91.7301 46.4101 91.7901 46.8451C91.9301 47.9151 92.0851 48.9801 92.2401 50.0451C92.2901 50.3951 92.3251 50.7501 92.4201 51.0901C92.6601 51.9551 92.6301 52.8251 92.5501 53.7001C92.4851 54.4051 92.1051 54.7551 91.3901 54.7651C90.5151 54.7751 89.6401 54.7651 88.7601 54.7651C86.8901 54.7651 85.0201 54.7451 83.1501 54.7701C81.6501 54.7901 80.1551 54.8701 78.6551 54.9201C78.0651 54.9401 77.4751 54.9601 76.8851 54.9601C73.6651 54.9651 70.4501 54.9601 67.2301 54.9651C64.7551 54.9651 62.2801 54.9651 59.8001 54.9651C56.2301 54.9651 52.6601 54.9651 47.8251 54.9651L47.8301 54.9601Z" fill="black"/>
<path d="M85.235 31.97C83.03 32.045 80.825 32.12 78.62 32.19C77.965 32.21 77.305 32.225 76.65 32.225C71.38 32.225 66.105 32.225 60.835 32.225C59.335 32.225 57.835 32.28 56.34 32.28C52.785 32.27 49.23 32.245 45.68 32.215C43.475 32.195 41.265 32.14 39.06 32.14C35.39 32.14 31.715 32.175 28.045 32.18C26.58 32.18 25.115 32.135 23.65 32.135C22.555 32.135 21.46 32.19 20.365 32.185C16.12 32.16 11.875 32.125 7.62998 32.075C7.07998 32.07 6.52498 31.975 5.97998 31.89C5.61498 31.835 5.39998 31.61 5.31998 31.23C5.21498 30.755 4.99998 30.3 4.94498 29.82C4.81998 28.79 4.75998 27.75 4.67998 26.71C4.66998 26.56 4.68998 26.405 4.65998 26.255C4.46998 25.295 4.79998 24.435 5.16498 23.575C5.26998 23.325 5.47498 23.235 5.72498 23.21C6.30998 23.15 6.89498 23.065 7.48498 23.035C8.76498 22.97 10.04 22.91 11.32 22.885C12.665 22.86 14.015 22.87 15.365 22.885C22.17 22.925 28.975 22.745 35.78 22.555C38.405 22.48 41.035 22.465 43.665 22.44C45.805 22.415 47.945 22.385 50.085 22.405C54.9 22.45 59.72 22.52 64.535 22.595C67.635 22.645 70.735 22.765 73.83 22.77C77.215 22.775 80.6 22.69 83.985 22.64C85.28 22.62 86.58 22.57 87.875 22.55C88.685 22.54 89.495 22.55 90.275 22.805C90.545 22.895 90.815 23 91.065 23.14C91.515 23.39 91.785 23.765 91.85 24.3C92.015 25.62 92.16 26.945 92.4 28.25C92.555 29.07 92.61 29.88 92.555 30.71C92.49 31.71 92.155 32.03 91.165 32.03C89.195 32.03 87.225 32.03 85.25 32.03C85.25 32.01 85.25 31.99 85.25 31.97H85.235Z" fill="black"/>
</svg>
