<svg width="44" height="44" viewBox="0 0 44 44" fill="none" xmlns="http://www.w3.org/2000/svg">
<path d="M26.0237 35.5676C25.0821 35.5984 23.9117 35.638 22.7413 35.6732C22.5257 35.6798 22.3123 35.6754 22.0967 35.6798C20.4973 35.7106 18.8957 35.7216 17.2963 35.7832C16.5681 35.8118 15.8443 35.957 15.1139 36.0142C14.2977 36.0802 13.4793 36.1264 12.6609 36.144C12.0845 36.1572 11.8293 35.8206 11.8645 35.2376C11.9195 34.3026 12.0273 33.3742 12.0207 32.4348C12.0119 31.1962 12.0097 29.9532 12.1109 28.719C12.1923 27.7158 12.1461 26.7126 12.2363 25.7094C12.2825 25.1858 12.2385 24.6556 12.2407 24.1298C12.2451 23.329 12.2473 22.5304 12.2605 21.7296C12.2693 21.2038 12.2869 20.678 12.3199 20.1522C12.3331 19.963 12.3903 19.7694 12.4585 19.5912C12.5179 19.435 12.6499 19.3536 12.8303 19.3668C13.5761 19.4218 14.3087 19.2766 15.0479 19.2326C15.7871 19.1886 16.5285 19.1842 17.2699 19.149C17.5801 19.1336 17.8881 19.0808 18.1983 19.05C18.5173 19.0192 18.8385 18.9686 19.1575 18.973C20.5127 18.9884 21.8701 18.9862 23.2253 19.0566C24.6003 19.1292 25.9731 19.1776 27.3481 19.0676C27.5219 19.0544 27.7001 19.0544 27.8739 19.0632C28.5581 19.0984 29.2357 19.0148 29.9155 18.9642C30.0035 18.9576 30.0915 18.9576 30.1795 18.9598C31.3499 18.995 32.5203 19.028 33.6885 19.0698C33.9701 19.0808 34.2539 19.1094 34.5333 19.149C34.9557 19.2062 35.2219 19.4658 35.3407 19.8596C35.4155 20.1104 35.4639 20.3722 35.4903 20.634C35.5827 21.5558 35.6575 22.4798 35.6201 23.4082C35.5959 24.0308 35.5431 24.6534 35.5167 25.2782C35.5013 25.5994 35.5013 25.9228 35.5145 26.244C35.5321 26.7588 35.5739 27.2758 35.5915 27.7906C35.6091 28.257 35.6025 28.7256 35.6201 29.192C35.6509 30.0192 35.6927 30.8464 35.7235 31.6758C35.7323 31.909 35.6905 32.1488 35.7279 32.3776C35.8225 32.9716 35.7697 33.5656 35.7719 34.1596C35.7719 34.3444 35.7565 34.5314 35.7323 34.714C35.6883 35.0418 35.3979 35.3146 35.0635 35.3454C34.8589 35.3652 34.6543 35.3762 34.4497 35.3872C31.7217 35.5346 28.9915 35.6556 26.0259 35.5698L26.0237 35.5676Z" fill="black"/>
<path d="M11.5828 26.1688C11.464 26.1688 11.3694 26.171 11.2748 26.1688C9.89104 26.1292 8.50504 26.0984 7.12124 26.0456C5.89144 25.9972 4.66384 26.0104 3.43624 26.1138C3.33064 26.1226 3.22064 26.1314 3.11504 26.1182C2.72784 26.0698 2.48144 25.786 2.49464 25.3966C2.53644 24.0722 2.59364 22.7456 2.62224 21.4212C2.63324 20.935 2.59144 20.4466 2.56944 19.9604C2.55184 19.5798 2.51884 19.2014 2.51004 18.8208C2.46604 17.0652 2.42864 15.3096 2.39124 13.554C2.38244 13.1052 2.38024 12.6564 2.39124 12.2076C2.40224 11.739 2.66404 11.4706 3.13044 11.4266C3.17884 11.4222 3.22724 11.42 3.27564 11.4178C4.20184 11.4046 5.12804 11.3804 6.05644 11.3848C6.43484 11.3848 6.81324 11.4486 7.19164 11.4838C7.57004 11.519 7.94844 11.5608 8.32684 11.5894C9.20244 11.6598 10.0758 11.739 10.9558 11.7192C11.6994 11.7038 12.4342 11.6554 13.1646 11.5058C14.2206 11.288 15.2854 11.1934 16.3634 11.3386C16.6692 11.3804 16.986 11.3474 17.2962 11.3474C17.3842 11.3474 17.4722 11.3364 17.5602 11.3408C17.9496 11.3606 18.2312 11.5696 18.3302 11.9436C18.3808 12.1394 18.4028 12.3462 18.4094 12.5508C18.449 13.895 18.4754 15.2414 18.5172 16.5856C18.526 16.8584 18.5854 17.129 18.5986 17.3996C18.614 17.7186 18.603 18.0398 18.603 18.3984C18.1982 18.4578 17.8 18.5458 17.3996 18.5678C16.5834 18.614 15.7628 18.6228 14.9444 18.6514C14.7684 18.658 14.5924 18.6734 14.4208 18.7042C13.928 18.7922 13.4308 18.7922 12.9336 18.79C12.2714 18.7878 11.8776 19.12 11.7808 19.7756C11.7324 20.1034 11.6994 20.4334 11.6818 20.7656C11.6642 21.0758 11.6818 21.3882 11.6774 21.7006C11.6642 22.9788 11.651 24.257 11.6334 25.533C11.6312 25.7266 11.6026 25.9202 11.5828 26.1666V26.1688Z" fill="black"/>
<path d="M36.122 27.335C36.1088 26.862 36.078 26.4044 36.0912 25.9512C36.1088 25.278 36.1682 24.607 36.1858 23.936C36.2034 23.2826 36.2166 22.627 36.1814 21.9758C36.1484 21.3246 36.0538 20.6778 35.9878 20.0266C35.9482 19.6416 35.77 19.3138 35.5258 19.0322C35.2662 18.733 34.9098 18.5834 34.5182 18.5592C33.8076 18.5152 33.097 18.4954 32.3842 18.469C31.7704 18.4448 31.1566 18.4074 30.5428 18.4074C29.9004 18.4074 29.258 18.4382 28.6156 18.458C28.5672 18.458 28.5188 18.4734 28.4704 18.4734C27.8368 18.4734 27.2032 18.4734 26.5696 18.4734C26.5322 18.4734 26.497 18.4602 26.4464 18.4514C26.4376 18.3986 26.4266 18.3524 26.4244 18.304C26.3892 17.6506 26.332 16.9972 26.332 16.346C26.332 15.8796 26.3782 15.4088 26.4574 14.9512C26.5454 14.4386 26.6158 13.9304 26.596 13.4112C26.574 12.8524 26.783 12.5752 27.3418 12.4718C27.993 12.3508 28.6508 12.254 29.3086 12.1638C30.974 11.9328 32.6482 11.8514 34.3312 11.8536C36.0494 11.8558 37.7654 11.8184 39.4836 11.814C39.862 11.814 40.2426 11.8624 40.6188 11.9152C41.072 11.979 41.336 12.2628 41.4658 12.6984C41.677 13.4046 41.809 14.1218 41.831 14.8566C41.8618 15.851 41.897 16.8454 41.9146 17.842C41.9498 19.822 41.9718 21.8042 42.0092 23.7842C42.018 24.2726 42.0686 24.7588 42.0994 25.245C42.1038 25.322 42.106 25.4012 42.117 25.4782C42.1984 26.048 41.9608 26.4264 41.4526 26.6838C40.9004 26.9632 40.3174 27.0952 39.708 27.1326C38.5794 27.2052 37.4486 27.269 36.32 27.3372C36.2716 27.3394 36.2232 27.3372 36.1242 27.3372L36.122 27.335Z" fill="black"/>
</svg>
