<svg width="62" height="100" viewBox="0 0 62 100" fill="none" xmlns="http://www.w3.org/2000/svg">
<path d="M0.495067 30.1351C0.440067 28.3251 1.06507 25.6251 1.90007 22.9601C2.11507 22.2701 2.31507 21.5701 2.50007 20.8701C2.82007 19.6551 3.33007 18.5201 3.91007 17.4101C6.30507 12.8301 9.67007 9.0901 13.8001 6.0151C14.9651 5.1501 16.1401 4.3051 17.4401 3.6451C20.2601 2.2151 23.2101 1.3101 26.4051 1.2751C26.9851 1.2701 27.5651 1.1551 28.1401 1.0551C30.8251 0.600104 33.4701 0.755104 36.0951 1.4601C37.1801 1.7551 38.2801 2.0001 39.3751 2.2701C42.2901 2.9851 45.0551 4.0451 47.5701 5.7201C49.0051 6.6751 50.1801 7.9301 51.3551 9.1701C53.3551 11.2801 55.1651 13.5451 56.5901 16.0851C58.1151 18.8051 59.6901 21.5001 60.7501 24.4551C61.1801 25.6601 61.4001 26.9001 61.4751 28.1751C61.6301 30.8301 61.2751 33.4301 60.8301 36.0401C60.2601 39.3951 59.2451 42.6101 58.0051 45.7601C57.1251 47.9951 55.9251 50.0751 54.7601 52.1651C53.5251 54.3801 52.1951 56.5401 50.9001 58.7201C49.8201 60.5401 48.9401 62.4601 48.0051 64.3551C46.1551 68.1201 44.7401 72.0651 43.2151 75.9601C42.3051 78.2801 41.6201 80.6901 40.7601 83.0301C39.8101 85.6151 38.8201 88.1901 37.7651 90.7351C37.0001 92.5801 35.9201 94.2651 34.8401 95.9401C33.9001 97.4051 32.5251 98.3201 30.9151 98.9051C30.1801 99.1701 29.4201 99.2151 28.6501 99.1551C27.9401 99.0951 27.3501 98.7551 26.8201 98.3001C26.0901 97.6751 25.5151 96.9251 25.0951 96.0701C23.9951 93.8301 22.9201 91.5801 21.8301 89.3401C21.2851 88.2151 20.7651 87.0851 20.4201 85.8801C20.3351 85.5801 20.1301 85.3101 19.9701 85.0301C19.6001 84.3851 19.2351 83.7351 18.8501 83.1001C18.0101 81.7001 17.2801 80.2451 16.5701 78.7751C15.9851 77.5651 15.3151 76.3851 14.6301 75.2301C12.8751 72.2751 11.5851 69.1101 10.3001 65.9401C9.51507 64.0001 8.69007 62.0751 7.82007 60.1751C6.77007 57.8801 6.03007 55.4751 5.17507 53.1101C4.91007 52.3701 4.67507 51.6201 4.40007 50.8901C3.70007 49.0451 3.15007 47.1501 2.65507 45.2401C2.13507 43.2351 1.54507 41.2451 1.25007 39.1851C0.870067 36.5151 0.560067 33.8351 0.495067 30.1301V30.1351ZM30.1251 37.5301C30.4351 37.8951 30.7151 38.1801 30.9401 38.5051C32.4801 40.6951 34.1501 42.7851 35.9001 44.8151C36.5551 45.5751 37.1501 46.3951 37.8151 47.1401C38.2951 47.6751 38.8151 48.1901 39.3801 48.6301C39.9701 49.0901 40.6551 49.4151 41.4351 49.3951C42.1801 49.3751 42.9301 49.3801 43.6601 49.2601C44.2651 49.1601 44.8901 48.9851 45.4251 48.6951C46.5351 48.0901 47.4151 47.2051 47.7101 45.9401C48.1001 44.2551 47.9201 42.6501 46.6551 41.3251C46.4201 41.0801 46.2001 40.8101 45.9401 40.5901C44.8951 39.6951 43.9951 38.6701 43.1101 37.6251C42.1351 36.4751 41.1251 35.3501 40.1351 34.2151C40.0351 34.1001 39.9501 33.9701 39.8301 33.8001C40.1001 33.6701 40.3301 33.5451 40.5701 33.4501C42.8351 32.5601 45.1001 31.6751 47.3651 30.7901C48.4951 30.3501 49.5901 29.8451 50.5001 29.0201C51.0801 28.4951 51.5051 27.8701 51.6951 27.1001C52.0251 25.7501 51.9551 24.4251 51.4501 23.1301C51.0901 22.2101 50.4851 21.5201 49.5501 21.1301C48.9451 20.8801 48.3201 20.7701 47.6701 20.7401C46.1601 20.6751 44.7651 21.1501 43.4151 21.7401C41.4601 22.5951 39.5851 23.6051 37.7801 24.7501C37.0651 25.2001 36.3151 25.5951 35.5801 26.0101C35.5401 26.0301 35.4701 26.0001 35.4001 25.9951C35.4001 25.7401 35.3751 25.5001 35.4001 25.2601C35.5201 24.3001 35.6401 23.3451 35.8001 22.3901C36.1451 20.3451 36.5251 18.3101 36.8701 16.2701C37.0351 15.2801 37.2401 14.2901 37.1601 13.2751C37.0151 11.5001 36.2101 10.0501 34.2151 9.5401C33.0651 9.2451 31.9251 9.3451 30.8151 9.6551C29.2051 10.1051 27.7851 10.9401 26.5601 12.0901C26.1601 12.4651 25.8201 12.8901 25.6551 13.4251C25.3451 14.4301 25.1051 15.4451 25.2951 16.5101C25.4451 17.3601 25.5851 18.2151 25.7551 19.0601C26.1901 21.2701 26.6401 23.4751 27.0801 25.6851C27.1801 26.1901 27.1651 26.7001 27.1351 27.3451C26.1351 26.7201 25.2501 26.1701 24.3701 25.6151C24.3051 25.5751 24.2501 25.5051 24.1951 25.4501C22.3051 23.5801 20.1751 22.0501 17.7901 20.8751C16.4101 20.1951 14.9951 19.7651 13.4301 20.0101C12.0051 20.2301 10.7751 20.8251 9.84007 21.9301C9.55007 22.2751 9.28507 22.7051 9.19007 23.1351C8.81007 24.9101 9.07007 26.6051 10.2051 28.0501C11.5951 29.8201 13.3951 31.1051 15.3801 32.1301C15.6951 32.2951 16.0651 32.3751 16.4151 32.4301C17.1701 32.5501 17.9301 32.6401 18.6901 32.7151C19.9901 32.8451 21.2951 32.9451 22.5951 33.0851C23.0801 33.1351 23.5651 33.2501 24.1201 33.3451C23.9701 33.5501 23.8901 33.6901 23.7851 33.7951C23.0551 34.5151 22.3551 35.2701 21.5801 35.9401C19.3601 37.8501 17.4151 40.0251 15.3701 42.1051C15.2451 42.2351 15.1351 42.3801 15.0201 42.5201C13.8351 43.9351 13.3301 45.5551 13.5051 47.3951C13.6501 48.9101 14.4001 50.0401 15.6651 50.8351C16.0001 51.0451 16.3851 51.2201 16.7701 51.2901C17.7301 51.4601 18.7051 51.4351 19.6551 51.2451C21.3351 50.9051 22.5251 49.8601 23.4151 48.4401C23.8951 47.6701 24.3851 46.9101 24.8401 46.1301C25.4701 45.0551 26.0701 43.9651 26.6801 42.8751C26.9851 42.3301 27.2501 41.7651 27.5851 41.2401C28.2801 40.1551 29.0151 39.0951 29.7351 38.0301C29.8401 37.8751 29.9751 37.7351 30.1451 37.5301H30.1251Z" fill="black"/>
</svg>
